<svg width="20" height="20" viewBox="0 0 20 20" fill="none" xmlns="http://www.w3.org/2000/svg">
<path d="M0 4.58333C0 8.35771 0.808958 9.16667 4.58333 9.16667C8.35771 9.16667 9.16667 8.35771 9.16667 4.58333C9.16667 0.808958 8.35771 0 4.58333 0C0.808958 0 0 0.808958 0 4.58333Z" fill="#6E6B6B"/>
<path d="M0 15.4167C0 19.191 0.808958 20 4.58333 20C8.35771 20 9.16667 19.191 9.16667 15.4167C9.16667 11.6423 8.35771 10.8333 4.58333 10.8333C0.808958 10.8333 0 11.6423 0 15.4167Z" fill="#6E6B6B"/>
<path d="M10.8333 4.58333C10.8333 8.35771 11.6423 9.16667 15.4167 9.16667C19.191 9.16667 20 8.35771 20 4.58333C20 0.808958 19.191 0 15.4167 0C11.6423 0 10.8333 0.808958 10.8333 4.58333Z" fill="#6E6B6B"/>
<path d="M10.8333 15.4167C10.8333 19.191 11.6423 20 15.4167 20C19.191 20 20 19.191 20 15.4167C20 11.6423 19.191 10.8333 15.4167 10.8333C11.6423 10.8333 10.8333 11.6423 10.8333 15.4167Z" fill="#6E6B6B"/>
</svg>
