<svg width="20" height="20" viewBox="0 0 20 20" fill="none" xmlns="http://www.w3.org/2000/svg">
<g clip-path="url(#clip0_50_3858)">
<path d="M0.625488 9.16662C0.625488 4.44923 4.44972 0.625 9.16711 0.625C13.7478 0.625 17.4864 4.23081 17.6992 8.75887C16.6842 8.09454 15.4707 7.7083 14.1671 7.7083C10.6003 7.7083 7.70879 10.5998 7.70879 14.1666C7.70879 15.4703 8.09503 16.6837 8.75936 17.6987C7.30033 17.6301 5.93659 17.1953 4.75859 16.4841C3.8912 16.8332 2.89552 17.196 1.98454 17.4489C1.29415 17.6406 0.671988 17.0471 0.84685 16.3468C1.0829 15.4015 1.44619 14.3796 1.80713 13.504C1.05628 12.2325 0.625488 10.7496 0.625488 9.16662Z" fill="#6E6B6B"/>
<path d="M14.1668 8.95825C17.0433 8.95825 19.3751 11.2901 19.3751 14.1666C19.3751 15.1252 19.1159 16.0239 18.6637 16.7957C18.8308 17.1586 18.995 17.5697 19.1273 18.0089C19.3384 18.7095 18.7009 19.3145 18.0127 19.0895C17.5955 18.9531 17.2 18.7924 16.8453 18.6342C16.0625 19.1045 15.146 19.3749 14.1668 19.3749C11.2903 19.3749 8.9585 17.043 8.9585 14.1666C8.9585 11.2901 11.2903 8.95825 14.1668 8.95825Z" fill="#6E6B6B"/>
</g>
<defs>
<clipPath id="clip0_50_3858">
<rect width="19.9999" height="19.9999" fill="white"/>
</clipPath>
</defs>
</svg>
