<svg width="24" height="24" viewBox="0 0 24 24" fill="none" xmlns="http://www.w3.org/2000/svg">
<path d="M12.4357 12.9998C12.2715 13.1246 12.1249 13.2712 12 13.4355C11.8751 13.2712 11.7285 13.1246 11.5643 12.9998C11.7285 12.8749 11.8751 12.7283 12 12.564C12.1249 12.7283 12.2715 12.8749 12.4357 12.9998Z" fill="#FE6BED"/>
<path fill-rule="evenodd" clip-rule="evenodd" d="M2.83877 11.3022L5.07437 18.2006C5.22412 18.6627 5.68404 18.9509 6.16601 18.8905C7.49034 18.7246 10.1189 18.4284 12 18.4284C13.8812 18.4284 16.5097 18.7246 17.8341 18.8905C18.316 18.9509 18.7759 18.6627 18.9257 18.2006L21.1613 11.3022C21.4481 10.417 20.4766 9.65423 19.6848 10.1429L17.3856 11.5619C16.8818 11.8727 16.2198 11.6804 15.961 11.1481L12.8994 4.84992C12.5346 4.09951 11.4654 4.09951 11.1007 4.84992L8.03906 11.1481C7.78027 11.6804 7.11824 11.8727 6.61451 11.5619L4.31524 10.1429C3.52342 9.65422 2.55191 10.417 2.83877 11.3022ZM11.2659 10.5108C11.5181 9.82939 12.4819 9.82939 12.7341 10.5108L13.0831 11.4542C13.1624 11.6684 13.3313 11.8373 13.5456 11.9166L14.4889 12.2657C15.1704 12.5178 15.1704 13.4817 14.4889 13.7338L13.5456 14.0829C13.3313 14.1622 13.1624 14.3311 13.0831 14.5453L12.7341 15.4887C12.4819 16.1701 11.5181 16.1701 11.2659 15.4887L10.9169 14.5453C10.8376 14.3311 10.6687 14.1622 10.4544 14.0829L9.51109 13.7338C8.82964 13.4817 8.82964 12.5178 9.51109 12.2657L10.4544 11.9166C10.6687 11.8373 10.8376 11.6684 10.9169 11.4542L11.2659 10.5108Z" fill="#FE6BED"/>
</svg>
