<svg width="7" height="7" viewBox="0 0 7 7" fill="none" xmlns="http://www.w3.org/2000/svg">
<path d="M2.91668 4.37501C2.91668 4.69718 3.17784 4.95835 3.50001 4.95835C3.82218 4.95835 4.08335 4.69718 4.08335 4.37501C4.08335 4.05285 3.82218 3.79168 3.50001 3.79168C3.17784 3.79168 2.91668 4.05285 2.91668 4.37501Z" fill="#6E6B6B"/>
<path fill-rule="evenodd" clip-rule="evenodd" d="M4.89691 0.511174C5.26412 0.837581 5.50754 1.31083 5.53836 1.91109C6.69927 2.18524 7.00002 2.8667 7.00002 4.37501C7.00002 6.53671 6.38227 7.00002 3.50001 7.00002C0.617752 7.00002 0 6.53671 0 4.37501C0 2.8667 0.300753 2.18524 1.46166 1.91109C1.49248 1.31083 1.7359 0.837581 2.10311 0.511174C2.49118 0.166221 3.00036 0 3.50001 0C3.99966 0 4.50884 0.166221 4.89691 0.511174ZM3.50001 1.75001C2.93579 1.75001 2.45834 1.76776 2.05532 1.81253C2.10273 1.4273 2.26958 1.14368 2.49066 0.947164C2.75883 0.708782 3.12465 0.583335 3.50001 0.583335C3.87537 0.583335 4.24119 0.708782 4.50937 0.947164C4.73044 1.14368 4.89729 1.4273 4.9447 1.81253C4.54168 1.76776 4.06423 1.75001 3.50001 1.75001ZM2.33334 4.37501C2.33334 5.01935 2.85568 5.54168 3.50001 5.54168C4.14434 5.54168 4.66668 5.01935 4.66668 4.37501C4.66668 3.73068 4.14434 3.20834 3.50001 3.20834C2.85568 3.20834 2.33334 3.73068 2.33334 4.37501Z" fill="#6E6B6B"/>
</svg>
