<svg width="81" height="24" viewBox="0 0 81 24" fill="none" xmlns="http://www.w3.org/2000/svg">
<path d="M34.2999 19H29.298V4.52272H34.2999V9.50437H39.6069V4.52272H44.6089V19H39.6069V13.0627H34.2999V19ZM54.5609 16.0923C55.2794 16.0923 55.8622 15.9771 56.3096 15.7467C56.7705 15.5162 57.1093 15.0892 57.3262 14.4657C57.5431 13.8286 57.6516 12.9271 57.6516 11.7614C57.6516 10.8803 57.5906 10.1618 57.4686 9.60604C57.3466 9.03671 57.1568 8.59615 56.8992 8.28438C56.6552 7.95904 56.3367 7.73538 55.9436 7.61338C55.564 7.49138 55.1099 7.43038 54.5812 7.43038C53.8628 7.43038 53.2731 7.5456 52.8123 7.77604C52.3649 8.00649 52.0328 8.44026 51.8159 9.07737C51.599 9.70093 51.4906 10.6024 51.4906 11.7817C51.4906 12.9475 51.599 13.8421 51.8159 14.4657C52.0328 15.0892 52.3649 15.5162 52.8123 15.7467C53.2731 15.9771 53.856 16.0923 54.5609 16.0923ZM54.5609 19.305C53.3274 19.305 52.209 19.1898 51.2059 18.9593C50.2028 18.7289 49.342 18.3358 48.6236 17.78C47.9052 17.2107 47.3494 16.438 46.9563 15.462C46.5767 14.486 46.3869 13.2592 46.3869 11.7817C46.3869 10.2906 46.5767 9.05704 46.9563 8.08104C47.3494 7.09149 47.9052 6.31883 48.6236 5.76305C49.342 5.19372 50.2028 4.79383 51.2059 4.56339C52.209 4.33295 53.3274 4.21772 54.5609 4.21772C55.808 4.21772 56.9331 4.33295 57.9362 4.56339C58.9393 4.79383 59.8001 5.19372 60.5186 5.76305C61.237 6.31883 61.786 7.08471 62.1656 8.06071C62.5587 9.03671 62.7552 10.2703 62.7552 11.7614C62.7552 13.2525 62.5587 14.486 62.1656 15.462C61.786 16.438 61.237 17.2107 60.5186 17.78C59.8001 18.3358 58.9393 18.7289 57.9362 18.9593C56.9331 19.1898 55.808 19.305 54.5609 19.305ZM73.0632 19H64.5436V4.52272H72.4532C73.741 4.52272 74.8051 4.63795 75.6455 4.86839C76.486 5.08528 77.1095 5.43094 77.5162 5.90538C77.9364 6.36627 78.1465 6.96949 78.1465 7.71505C78.1465 8.44704 77.9432 9.02315 77.5365 9.44337C77.1434 9.86359 76.5877 10.1754 75.8692 10.3787C75.1508 10.582 74.3239 10.7176 73.3886 10.7854V10.9887C74.3781 11.0023 75.2592 11.0836 76.0319 11.2327C76.8045 11.3683 77.4484 11.5851 77.9635 11.8834C78.4922 12.1816 78.8921 12.5747 79.1632 13.0627C79.4343 13.5507 79.5699 14.1539 79.5699 14.8723C79.5699 15.9432 79.3259 16.7769 78.8379 17.3733C78.3634 17.9698 77.645 18.39 76.6825 18.634C75.7201 18.878 74.5137 19 73.0632 19ZM69.5456 15.9093H72.1279C72.7108 15.9093 73.1717 15.8619 73.5106 15.767C73.863 15.6586 74.1206 15.4891 74.2832 15.2587C74.4459 15.0282 74.5272 14.73 74.5272 14.364C74.5272 13.9845 74.4459 13.6862 74.2832 13.4694C74.1206 13.2389 73.863 13.0762 73.5106 12.9814C73.1717 12.8729 72.7108 12.8187 72.1279 12.8187H69.5456V15.9093ZM69.5456 9.85004H71.5179C72.1143 9.85004 72.5278 9.7687 72.7582 9.60604C72.9887 9.44337 73.1039 9.15193 73.1039 8.73171C73.1039 8.29793 72.9887 8.00649 72.7582 7.85738C72.5278 7.69471 72.1143 7.61338 71.5179 7.61338H69.5456V9.85004Z" fill="white"/>
<path fill-rule="evenodd" clip-rule="evenodd" d="M9.94146 4.28357C8.1612 2.15707 4.99415 1.87639 2.86765 3.65665L0.86112 5.33647C-0.157203 6.18899 -0.291615 7.70561 0.560903 8.72393L2.24073 10.7305C3.3326 12.0347 4.94615 12.6446 6.52133 12.5105C6.53154 12.5367 6.54336 12.5623 6.55675 12.5872C6.75985 12.9708 11.6776 21.9791 17.7531 21.9791C19.1798 21.9775 20.5476 21.4101 21.5564 20.4012C22.5652 19.3924 23.1327 18.0246 23.1343 16.5979C23.1343 14.8057 22.3636 13.2364 21.0608 12.2583C22.3636 11.2801 23.1343 9.71088 23.1343 7.91859C23.1327 6.49191 22.5652 5.12411 21.5564 4.11529C20.5476 3.10647 19.1798 2.53901 17.7531 2.5374C15.1694 2.5374 12.795 4.1666 10.9036 6.0688C10.7139 5.43302 10.3944 4.82462 9.94146 4.28357Z" fill="#FE6BED"/>
<circle cx="5.14634" cy="6.64195" r="1.4962" fill="white"/>
<circle cx="4.56448" cy="6.642" r="0.914343" fill="black"/>
</svg>
